# Blender v2.93.1 OBJ File: 'pote.blend'
# www.blender.org
mtllib pote.mtl
o Cubo
v -0.250000 -0.498737 0.250691
v -0.250000 0.001263 0.250691
v -0.250000 -0.498737 -0.249309
v -0.250000 0.001263 -0.249309
v 0.250000 -0.498737 0.250691
v 0.250000 0.001263 0.250691
v 0.250000 -0.498737 -0.249309
v 0.250000 0.001263 -0.249309
v -0.114353 0.001263 0.115044
v -0.114353 0.001263 -0.113662
v 0.114353 0.001263 0.115044
v 0.114353 0.001263 -0.113662
v -0.114353 0.233649 0.115044
v -0.114353 0.233649 -0.113662
v 0.114353 0.233649 0.115044
v 0.114353 0.233649 -0.113662
v -0.189915 0.233649 0.190606
v -0.189915 0.233649 -0.189224
v 0.189915 0.233649 0.190606
v 0.189915 0.233649 -0.189224
v -0.189915 0.341066 0.190606
v -0.189915 0.341066 -0.189224
v 0.189915 0.341066 0.190606
v 0.189915 0.341066 -0.189224
vt 0.625830 0.000000
vt 0.623047 0.562988
vt 0.000000 0.562012
vt 0.000000 0.000000
vt 0.622475 0.000000
vt 0.622475 0.562186
vt 0.000000 0.562186
vt 0.000000 0.000000
vt 0.624764 0.000353
vt 0.624764 0.562699
vt 0.000000 0.562699
vt 0.000000 0.000353
vt 0.623603 0.000000
vt 0.624892 0.562376
vt 0.000820 0.562127
vt -0.000601 0.000000
vt 0.001302 0.003255
vt 0.623698 0.003255
vt 0.623698 0.561198
vt 0.001302 0.561198
vt 0.624573 0.000259
vt 0.625082 0.562097
vt 0.437960 0.374359
vt 0.438366 0.188817
vt 0.689928 0.000837
vt 0.996389 0.000837
vt 0.996388 0.444239
vt 0.689928 0.444239
vt -0.000488 0.562737
vt 0.188249 0.373834
vt 0.000264 0.000286
vt 0.188335 0.187950
vt 0.499642 0.125132
vt 0.124401 0.125132
vt 0.000753 0.003490
vt 0.624755 0.003490
vt 0.687500 0.000744
vt 1.000147 0.000744
vt 1.000147 0.445648
vt 0.687500 0.445648
vt 0.689601 0.000000
vt 0.996389 0.000000
vt 0.996388 0.447293
vt 0.689601 0.447293
vt 0.687939 -0.000179
vt 0.999171 -0.000179
vt 0.999171 0.445565
vt 0.687939 0.445565
vt 0.999482 0.562524
vt 0.687889 0.562214
vt 0.687682 0.437304
vt 0.999914 0.436291
vt 0.124401 0.438108
vt 0.499642 0.438108
vt 0.624755 0.562211
vt 0.000753 0.562211
vt 0.000000 0.998023
vt 0.000000 0.625492
vt 0.374992 0.625492
vt 0.374992 0.998023
vt 0.999749 0.562337
vt 0.687782 0.562476
vt 0.687761 0.443581
vt 0.999615 0.446084
vt 0.688952 0.446708
vt 0.999732 0.447181
vt 0.998546 0.562315
vt 0.687766 0.561842
vt 0.687570 0.444946
vt 0.999654 0.446697
vt 0.999361 0.562291
vt 0.688041 0.562737
vn -1.0000 0.0000 0.0000
vn 0.0000 0.0000 -1.0000
vn 1.0000 0.0000 0.0000
vn 0.0000 0.0000 1.0000
vn 0.0000 -1.0000 0.0000
vn 0.0000 1.0000 0.0000
usemtl Materiais.002
s off
f 1/1/1 2/2/1 4/3/1 3/4/1
f 3/5/2 4/6/2 8/7/2 7/8/2
f 7/9/3 8/10/3 6/11/3 5/12/3
f 5/13/4 6/14/4 2/15/4 1/16/4
f 3/17/5 7/18/5 5/19/5 1/20/5
f 4/21/6 2/22/6 9/23/6 10/24/6
f 12/25/2 10/26/2 14/27/2 16/28/2
f 2/22/6 6/29/6 11/30/6 9/23/6
f 8/31/6 4/21/6 10/24/6 12/32/6
f 6/29/6 8/31/6 12/32/6 11/30/6
f 15/33/5 16/34/5 20/35/5 19/36/5
f 11/37/3 12/38/3 16/39/3 15/40/3
f 10/41/1 9/42/1 13/43/1 14/44/1
f 9/45/4 11/46/4 15/47/4 13/48/4
f 17/49/4 19/50/4 23/51/4 21/52/4
f 14/53/5 13/54/5 17/55/5 18/56/5
f 13/54/5 15/33/5 19/36/5 17/55/5
f 16/34/5 14/53/5 18/56/5 20/35/5
f 24/57/6 22/58/6 21/59/6 23/60/6
f 20/61/2 18/62/2 22/63/2 24/64/2
f 19/65/3 20/66/3 24/67/3 23/68/3
f 18/69/1 17/70/1 21/71/1 22/72/1
